<?xml version="1.0" standalone="no"?>
<!DOCTYPE svg PUBLIC "-//W3C//DTD SVG 20010904//EN"
 "http://www.w3.org/TR/2001/REC-SVG-20010904/DTD/svg10.dtd">
<svg version="1.0" xmlns="http://www.w3.org/2000/svg"
 width="1920.000000pt" height="1280.000000pt" viewBox="0 0 1920.000000 1280.000000"
 preserveAspectRatio="xMidYMid meet">

<g transform="translate(0.000000,1280.000000) scale(0.100000,-0.100000)"
fill="#000000" stroke="none">
<path d="M8332 10318 c-7 -7 -12 -26 -12 -43 0 -43 -39 -63 -66 -34 -27 30
-77 25 -108 -12 -31 -37 -33 -69 -6 -94 34 -31 10 -75 -40 -75 -38 0 -50 -18
-50 -71 0 -56 18 -79 61 -79 40 0 55 -36 28 -66 -28 -31 -24 -66 14 -102 38
-37 64 -40 100 -11 37 28 67 12 67 -36 0 -40 20 -55 75 -55 55 0 75 15 75 56
0 28 5 36 27 45 21 8 30 6 48 -11 30 -28 56 -25 93 13 36 37 41 71 13 101 -29
32 -12 66 32 66 45 0 57 15 57 75 0 58 -12 75 -51 75 -17 0 -34 8 -43 22 -14
19 -13 23 4 46 27 34 25 71 -7 104 -32 34 -81 38 -107 9 -27 -29 -66 -9 -66
34 0 43 -16 55 -75 55 -28 0 -56 -5 -63 -12z m128 -247 c54 -39 56 -125 3
-168 -69 -56 -173 -8 -173 81 0 95 93 142 170 87z"/>
<path d="M9064 9901 c-36 -16 -54 -51 -54 -107 0 -54 -10 -70 -63 -92 -43 -18
-55 -15 -104 28 -67 59 -91 55 -170 -23 -77 -78 -80 -99 -23 -161 42 -46 48
-67 28 -113 -22 -53 -37 -63 -93 -63 -38 0 -60 -6 -79 -21 -25 -19 -26 -25
-26 -109 0 -115 11 -130 103 -139 36 -4 68 -9 71 -11 9 -10 36 -84 36 -99 0
-10 -13 -30 -29 -45 -36 -35 -55 -78 -47 -109 3 -13 32 -49 65 -80 73 -70 95
-72 155 -17 48 44 66 48 126 24 43 -17 45 -23 53 -109 7 -72 28 -85 132 -85
110 0 128 13 135 101 6 71 27 95 93 106 33 5 41 2 82 -36 63 -58 84 -56 162
22 78 79 82 103 23 170 -44 50 -46 59 -26 109 20 47 32 55 98 60 88 7 98 21
98 134 0 88 -1 94 -26 113 -19 15 -41 21 -79 21 -56 0 -71 10 -93 63 -19 45
-15 63 28 112 56 65 54 85 -23 162 -79 78 -103 82 -170 23 -52 -46 -67 -48
-122 -17 -39 22 -40 25 -45 84 -7 89 -27 107 -123 110 -39 2 -82 -1 -93 -6z
m155 -437 c37 -10 66 -29 96 -59 151 -151 44 -405 -170 -405 -183 0 -297 189
-210 348 32 59 79 99 139 118 55 17 83 17 145 -2z"/>
<path d="M13361 9399 c-453 -89 -778 -509 -748 -965 27 -403 301 -738 692
-846 109 -29 345 -32 450 -4 100 27 197 67 192 80 -3 6 -109 191 -236 411
l-231 399 0 468 0 468 -37 -1 c-21 -1 -58 -5 -82 -10z"/>
<path d="M13590 8976 l0 -436 435 0 435 0 0 28 c0 145 -96 385 -208 518 -145
173 -373 295 -594 319 l-68 7 0 -436z m277 263 c213 -89 389 -287 456 -516
l16 -53 -310 0 -309 0 0 306 0 306 38 -7 c20 -4 69 -20 109 -36z"/>
<path d="M3986 9199 c-95 -10 -200 -63 -260 -130 -77 -85 -126 -218 -126 -341
0 -40 -4 -58 -12 -58 -35 0 -137 -62 -181 -108 -73 -79 -91 -127 -92 -247 0
-88 3 -107 27 -157 34 -73 103 -142 176 -176 l57 -27 660 0 660 0 48 22 c72
34 150 113 183 186 38 83 40 202 6 288 -40 100 -131 183 -235 214 l-42 12 -5
59 c-6 68 -19 95 -69 147 -65 69 -171 83 -263 36 -22 -11 -41 -19 -42 -17 -2
2 -18 32 -37 67 -47 91 -112 159 -183 192 -53 25 -79 31 -176 43 -14 1 -56 -1
-94 -5z m145 -448 c33 -32 39 -45 39 -80 0 -67 -37 -119 -95 -134 -11 -2 1 -5
28 -6 26 0 47 -3 47 -6 0 -3 -7 -17 -16 -31 -12 -18 -15 -37 -11 -73 5 -43 3
-51 -19 -72 -26 -25 -44 -75 -44 -127 l0 -34 -62 7 c-35 3 -87 13 -115 21
l-53 15 0 93 c0 80 3 98 23 127 34 50 82 79 136 80 45 1 45 1 14 10 -46 13
-83 66 -83 118 0 79 51 130 129 131 37 0 49 -5 82 -39z m327 19 c34 -21 62
-72 62 -113 0 -34 -40 -89 -78 -108 l-32 -16 49 -5 c101 -10 143 -67 149 -204
l4 -91 -48 -13 c-27 -7 -75 -15 -106 -19 l-58 -7 0 44 c0 49 -24 108 -51 125
-14 9 -17 20 -12 59 4 34 1 54 -11 72 -22 34 -21 36 17 36 l32 1 -30 13 c-43
19 -75 58 -81 98 -13 74 50 148 126 148 19 0 50 -9 68 -20z m-165 -281 c24
-29 22 -81 -4 -104 -20 -19 -20 -19 15 -37 47 -24 68 -66 64 -130 -3 -48 -5
-52 -33 -60 -43 -13 -175 -13 -207 0 -26 11 -28 15 -28 75 0 69 17 99 67 118
l24 9 -20 26 c-29 37 -26 70 9 106 26 25 36 29 63 24 18 -3 40 -16 50 -27z"/>
<path d="M6347 8438 c-6 -137 -35 -294 -72 -396 -13 -37 -21 -69 -17 -73 4 -3
51 -33 105 -67 l97 -62 1055 0 1055 0 0 115 0 115 -192 0 c-273 0 -422 26
-617 106 -165 68 -305 163 -442 299 l-86 85 -440 0 -440 0 -6 -122z"/>
<path d="M10533 8464 c-151 -151 -320 -254 -532 -324 -157 -52 -287 -70 -515
-70 l-186 0 0 -115 0 -115 1051 0 1052 0 91 57 c129 80 122 70 97 144 -46 131
-62 222 -68 372 l-6 147 -446 -2 -446 -2 -92 -92z"/>
<path d="M13650 8424 c0 -6 390 -685 401 -698 5 -5 39 16 79 48 173 140 304
378 326 595 l7 61 -407 0 c-223 0 -406 -3 -406 -6z"/>
<path d="M5420 7185 c-126 -45 -232 -66 -362 -72 l-108 -6 0 -1828 0 -1829
670 -2 670 -3 -188 -211 c-103 -117 -200 -234 -214 -261 -56 -103 -72 -226
-43 -338 42 -161 176 -291 338 -331 43 -10 -112 -12 -886 -13 l-937 -1 33 68
c19 37 47 101 62 142 16 41 31 78 35 83 3 4 21 0 39 -9 42 -21 116 -12 148 18
12 11 28 37 34 56 15 45 7 190 -12 220 -17 27 -67 52 -104 52 -24 0 -26 3 -21
28 3 15 8 55 11 90 l7 62 -261 0 -261 0 0 -89 0 -90 28 -3 c26 -3 27 -5 27
-68 l0 -65 -65 0 -65 0 0 65 c0 63 1 65 28 68 l27 3 0 90 0 89 -131 0 -131 0
7 -67 c20 -200 95 -470 180 -650 l44 -93 -168 0 -168 0 -6 -112 c-4 -62 -7
-229 -7 -370 l0 -258 375 0 375 0 0 -775 0 -775 235 0 235 0 0 775 0 775 899
0 900 0 3 -237 c3 -233 4 -239 29 -294 59 -126 159 -188 317 -196 l97 -6 -3
-386 c-1 -212 0 -396 3 -408 l5 -23 1800 0 1800 0 0 410 0 410 63 0 c164 0
281 70 344 205 28 59 28 62 31 293 l4 232 979 0 979 0 0 -775 0 -775 1900 0
1900 0 0 1145 0 1145 -640 0 -639 0 -11 40 c-12 46 -51 95 -91 115 -36 19
-110 19 -154 1 -42 -18 -95 -89 -95 -128 l0 -28 -762 0 -763 0 58 24 c122 50
158 102 178 251 12 100 27 125 71 125 23 0 50 -18 112 -74 104 -92 146 -106
250 -82 81 19 116 36 170 85 22 21 55 43 73 50 39 16 48 36 24 58 -14 14 -20
40 -25 118 -6 95 -5 102 17 135 23 33 24 36 10 77 -10 29 -21 43 -32 43 -41 0
-276 -72 -367 -113 -54 -24 -124 -52 -154 -62 -30 -10 -134 -46 -230 -80 -96
-34 -212 -72 -256 -83 -90 -24 -313 -115 -344 -141 -19 -16 -19 -17 -1 -57 14
-30 27 -43 47 -48 38 -10 48 -19 109 -102 41 -55 52 -77 48 -97 l-5 -27 -952
1 c-922 0 -949 1 -891 18 89 26 143 57 205 120 102 102 151 249 130 389 -18
119 -60 185 -265 417 l-186 210 671 3 670 2 0 1830 0 1830 -78 0 c-130 0 -345
47 -489 107 -10 4 -13 -304 -13 -1521 l0 -1526 -699 0 -699 0 -98 111 -99 111
-417 -1 -418 -2 0 71 0 70 55 0 56 0 -3 128 -3 127 -263 0 c-144 0 -262 1
-262 2 0 1 33 17 73 37 193 96 330 248 395 441 l27 80 3 593 c4 683 2 697 -72
848 -49 97 -138 204 -224 268 -114 83 -296 150 -440 162 -70 5 -82 3 -137 -22
-53 -25 -72 -28 -160 -28 -90 -1 -106 2 -159 28 -54 26 -65 28 -135 23 -279
-23 -546 -192 -660 -419 -78 -157 -76 -136 -76 -823 0 -561 1 -615 18 -675 61
-215 220 -396 430 -488 26 -11 47 -22 47 -24 0 -2 -117 -2 -260 0 l-260 3 0
-131 0 -130 50 0 c48 0 49 -1 55 -33 4 -18 5 -49 3 -68 l-3 -34 -435 -2 -435
-1 -100 -111 -100 -111 -702 0 -703 0 0 1525 c0 839 -3 1525 -7 1524 -5 0 -51
-16 -103 -34z m9230 -4264 c5 -20 10 -64 10 -99 0 -76 12 -78 -179 17 l-133
67 133 35 c88 23 138 32 146 26 7 -5 17 -26 23 -46z m-305 -82 c60 -29 274
-169 275 -179 0 -12 -101 -72 -145 -86 -119 -35 -205 1 -274 116 -35 59 -24
149 23 183 16 11 53 0 121 -34z m-9698 9 c20 -19 23 -31 23 -105 0 -76 -2 -86
-25 -108 -31 -32 -76 -32 -109 -2 l-25 22 26 108 c27 106 28 107 57 107 17 0
40 -9 53 -22z m9460 -32 c-43 -39 -109 -59 -152 -47 -28 7 -27 9 40 34 150 56
163 57 112 13z m-209 -95 c57 -29 77 -72 77 -161 0 -107 -27 -153 -115 -198
-46 -23 -85 -34 -134 -39 -64 -6 -68 -5 -62 13 3 10 17 59 31 109 33 112 71
211 98 250 36 52 49 55 105 26z m-203 -88 c-12 -27 -44 -94 -70 -151 -27 -56
-53 -101 -59 -99 -16 5 -86 112 -96 146 -6 20 -5 33 3 39 13 10 227 111 238
112 3 0 -4 -21 -16 -47z m-7005 -238 l0 -105 -172 1 c-158 1 -169 2 -123 13
84 20 145 56 220 128 38 37 71 68 73 68 1 0 2 -47 2 -105z m4541 52 c58 -65
142 -116 228 -139 l66 -17 -172 0 -172 -1 -3 105 c-2 58 -1 105 2 105 3 0 26
-24 51 -53z"/>
</g>
</svg>
