<?xml version="1.0" standalone="no"?>
<!DOCTYPE svg PUBLIC "-//W3C//DTD SVG 20010904//EN"
 "http://www.w3.org/TR/2001/REC-SVG-20010904/DTD/svg10.dtd">
<svg version="1.0" xmlns="http://www.w3.org/2000/svg"
 width="1920.000000pt" height="1238.000000pt" viewBox="0 0 1920.000000 1238.000000"
 preserveAspectRatio="xMidYMid meet">

<g transform="translate(0.000000,1238.000000) scale(0.100000,-0.100000)"
fill="#000000" stroke="none">
<path d="M8150 10215 l0 -585 475 0 475 0 0 -110 0 -110 -475 0 -475 0 0
-1085 0 -1085 475 0 475 0 0 -110 0 -110 -475 0 -475 0 0 -40 0 -40 443 0
c243 0 479 -3 524 -7 l83 -6 2 1279 3 1279 158 3 157 3 0 -1281 0 -1280 218 2
c186 3 217 5 215 18 -2 8 -57 359 -123 780 -67 421 -134 851 -151 955 -16 105
-36 231 -44 280 -54 331 -75 467 -75 483 0 16 31 23 262 60 144 23 263 40 264
39 2 -2 128 -792 210 -1317 24 -157 49 -310 54 -340 5 -30 19 -113 30 -185 11
-71 40 -258 65 -414 25 -156 44 -285 43 -286 -2 -1 -84 -14 -183 -29 -99 -15
-191 -31 -205 -36 -15 -5 95 -9 266 -9 160 -1 293 1 296 4 2 3 -6 74 -19 157
-13 84 -28 189 -34 232 -5 44 -23 170 -40 280 -16 111 -59 401 -94 646 -36
245 -74 506 -86 580 -11 74 -25 169 -30 210 -5 41 -15 116 -23 165 -8 50 -13
91 -12 93 3 2 121 20 321 47 61 8 119 17 131 20 20 4 22 -4 43 -143 12 -81 28
-194 36 -252 8 -58 34 -244 60 -415 25 -170 52 -357 61 -415 8 -58 35 -241 59
-407 25 -166 45 -308 45 -317 0 -8 -10 -17 -22 -19 -20 -4 -19 -4 5 -6 15 0
28 -7 29 -13 0 -7 2 -24 3 -38 1 -14 12 -96 25 -183 12 -87 20 -160 18 -163
-7 -7 -267 -44 -312 -44 -22 0 -36 -3 -32 -7 4 -5 707 -8 1562 -8 l1554 0 0
1553 0 1552 310 0 310 0 0 -1555 0 -1555 45 0 45 0 0 1405 0 1405 175 0 175 0
0 -1404 0 -1404 530 -1 c526 -1 530 -1 530 19 0 11 -31 190 -70 398 -38 207
-72 391 -75 407 -3 17 -46 251 -96 520 -49 270 -110 600 -134 735 -25 135 -53
291 -63 347 l-19 102 49 10 c89 20 81 31 116 -161 17 -95 59 -321 92 -503 90
-486 89 -479 115 -625 13 -74 58 -322 100 -550 42 -228 83 -451 91 -495 8 -44
20 -107 27 -140 l12 -60 58 -3 57 -3 0 1281 0 1280 450 0 450 0 2 -1277 3
-1278 28 -3 27 -3 0 1935 0 1936 -4550 0 -4550 0 0 -585z m4531 -370 c214 -37
411 -139 573 -294 87 -85 202 -234 158 -207 -8 5 -32 8 -187 26 -55 6 -109 13
-121 16 -11 2 -75 42 -141 89 -67 47 -124 85 -128 85 -3 0 -63 -24 -133 -54
l-127 -53 -80 8 c-44 5 -134 11 -200 15 -110 6 -124 5 -161 -14 -46 -23 -154
-118 -154 -135 0 -6 22 -31 49 -57 l49 -47 114 -11 c62 -7 181 -19 263 -27 83
-9 157 -18 165 -21 8 -2 48 -53 88 -112 70 -105 72 -110 72 -170 l0 -62 61 0
c52 0 70 -5 122 -36 105 -62 234 -98 363 -102 l112 -3 66 -84 67 -84 -21 -73
c-55 -187 -189 -396 -331 -519 -327 -280 -769 -353 -1160 -190 -97 40 -213
109 -267 157 l-42 39 -5 95 c-3 52 -7 147 -10 210 -11 222 7 187 -186 362
l-169 153 0 73 c0 89 21 195 62 310 86 245 260 453 494 590 78 46 228 102 323
122 108 23 307 25 422 5z m2879 -663 l0 -28 -246 -22 c-135 -12 -250 -20 -255
-16 -5 3 -9 16 -9 28 0 23 4 24 143 36 78 7 171 16 207 20 36 4 86 8 113 9 45
1 47 0 47 -27z m-6832 -859 l2 -783 -105 0 -105 0 0 778 c0 428 3 782 7 786 4
4 50 5 103 4 l95 -3 3 -782z m6848 692 c4 -14 5 -28 3 -29 -5 -5 -442 -46
-482 -46 -23 0 -27 4 -27 28 0 27 3 29 48 31 26 1 126 10 222 20 241 25 228
26 236 -4z m14 -175 c0 -35 8 -33 -250 -55 -102 -9 -199 -18 -216 -20 -28 -5
-32 -2 -37 22 -3 16 -4 29 -3 30 1 2 101 12 222 23 120 11 228 22 239 24 42 7
45 6 45 -24z m-4135 -459 c18 -66 13 -77 -9 -22 -29 73 -56 195 -61 271 -5 74
-5 72 25 -60 17 -74 37 -159 45 -189z m3990 44 c111 -53 53 -224 -68 -201 -94
18 -116 146 -35 196 40 24 60 25 103 5z m-3792 -379 c12 -16 33 -42 46 -58 43
-52 14 -40 -33 14 -52 58 -166 223 -166 240 0 5 30 -30 66 -79 36 -48 75 -101
87 -117z m4045 -348 c3 -22 -1 -28 -15 -28 -10 0 -112 -9 -228 -20 -275 -26
-265 -27 -265 8 l0 29 218 20 c277 26 286 26 290 -9z m15 -165 c3 -16 4 -29 3
-30 -1 -1 -101 -11 -221 -23 -121 -11 -235 -22 -252 -24 -31 -4 -33 -3 -33 24
0 26 4 29 43 35 40 6 388 41 433 44 16 1 23 -6 27 -26z m17 -182 c0 -26 -3
-27 -47 -29 -27 -1 -64 -4 -83 -7 -84 -12 -364 -34 -372 -29 -12 7 -10 54 2
54 19 0 454 40 470 43 23 5 30 -2 30 -32z"/>
<path d="M12172 9105 c-124 -23 -222 -79 -258 -147 -8 -15 -14 -56 -14 -94 0
-114 35 -207 102 -276 62 -62 108 -82 174 -74 68 8 87 -9 104 -91 36 -174 173
-523 206 -523 7 0 24 15 38 33 22 30 150 240 243 402 51 88 173 326 173 337 0
4 -54 8 -120 8 l-120 0 0 93 0 92 -103 100 -104 101 -97 27 c-106 30 -119 31
-224 12z"/>
<path d="M12823 8272 c-57 -87 -103 -162 -103 -165 0 -4 21 -7 48 -7 56 0 272
77 272 97 0 12 -107 233 -113 233 -1 0 -48 -71 -104 -158z"/>
<path d="M3695 10364 c-11 -2 -45 -9 -75 -15 -144 -27 -348 -139 -420 -230
-56 -71 -83 -150 -76 -219 4 -30 11 -59 16 -64 6 -6 10 -19 10 -31 0 -38 123
-223 207 -312 8 -10 0 -34 -36 -105 -26 -51 -53 -115 -60 -143 -7 -27 -18 -61
-24 -74 -16 -32 -14 -244 2 -301 39 -140 154 -403 176 -402 6 0 15 19 22 42
17 57 29 70 69 70 39 0 85 -36 140 -111 19 -27 40 -49 44 -49 5 0 8 71 8 158
-2 135 1 168 20 235 45 160 132 309 262 450 147 159 340 250 560 263 86 6 102
4 170 -21 190 -69 439 -311 511 -497 12 -29 25 -64 30 -77 6 -13 12 -21 15
-19 8 9 8 275 -1 366 -4 45 -11 85 -16 88 -5 3 -7 9 -4 14 7 11 -30 119 -63
185 -32 66 -160 189 -247 240 -143 83 -346 156 -495 177 -74 11 -81 14 -86 38
-26 119 -73 192 -162 250 -106 70 -182 91 -342 96 -74 1 -144 1 -155 -2z"/>
<path d="M5077 9719 c7 -7 15 -10 18 -7 3 3 -2 9 -12 12 -14 6 -15 5 -6 -5z"/>
<path d="M10798 9073 c6 -2 18 -2 25 0 6 3 1 5 -13 5 -14 0 -19 -2 -12 -5z"/>
<path d="M10733 9063 c9 -2 23 -2 30 0 6 3 -1 5 -18 5 -16 0 -22 -2 -12 -5z"/>
<path d="M10663 9053 c9 -2 25 -2 35 0 9 3 1 5 -18 5 -19 0 -27 -2 -17 -5z"/>
<path d="M10593 9043 c9 -2 23 -2 30 0 6 3 -1 5 -18 5 -16 0 -22 -2 -12 -5z"/>
<path d="M10523 9033 c9 -2 23 -2 30 0 6 3 -1 5 -18 5 -16 0 -22 -2 -12 -5z"/>
<path d="M10468 9023 c6 -2 18 -2 25 0 6 3 1 5 -13 5 -14 0 -19 -2 -12 -5z"/>
<path d="M10388 9013 c6 -2 18 -2 25 0 6 3 1 5 -13 5 -14 0 -19 -2 -12 -5z"/>
<path d="M10758 8993 c6 -2 18 -2 25 0 6 3 1 5 -13 5 -14 0 -19 -2 -12 -5z"/>
<path d="M10698 8983 c7 -3 16 -2 19 1 4 3 -2 6 -13 5 -11 0 -14 -3 -6 -6z"/>
<path d="M10638 8973 c6 -2 18 -2 25 0 6 3 1 5 -13 5 -14 0 -19 -2 -12 -5z"/>
<path d="M10510 8960 c-34 -7 -34 -7 -5 -8 17 0 44 4 60 8 27 7 27 8 5 8 -14
-1 -41 -4 -60 -8z"/>
<path d="M10423 8943 c9 -2 23 -2 30 0 6 3 -1 5 -18 5 -16 0 -22 -2 -12 -5z"/>
<path d="M4913 8875 c-18 -15 -33 -31 -33 -37 0 -10 61 -6 148 9 34 6 34 6 14
25 -10 11 -37 22 -58 24 -31 4 -45 0 -71 -21z"/>
<path d="M4149 8757 c-19 -12 -32 -27 -29 -32 6 -12 161 -7 173 5 12 11 -55
50 -85 50 -14 0 -40 -10 -59 -23z"/>
<path d="M4964 8748 c-11 -18 -4 -78 12 -110 10 -19 22 -28 39 -28 31 0 42 37
27 89 -8 23 -8 37 -2 39 6 2 8 8 4 13 -8 13 -72 11 -80 -3z"/>
<path d="M10718 8693 c7 -3 16 -2 19 1 4 3 -2 6 -13 5 -11 0 -14 -3 -6 -6z"/>
<path d="M10653 8683 c9 -2 25 -2 35 0 9 3 1 5 -18 5 -19 0 -27 -2 -17 -5z"/>
<path d="M10588 8673 c6 -2 18 -2 25 0 6 3 1 5 -13 5 -14 0 -19 -2 -12 -5z"/>
<path d="M10752 8660 c0 -14 2 -19 5 -12 2 6 2 18 0 25 -3 6 -5 1 -5 -13z"/>
<path d="M4225 8642 c-40 -8 -44 -19 -30 -78 7 -31 20 -63 29 -72 14 -14 17
-14 37 3 17 16 20 27 15 60 -4 22 -7 50 -7 62 -1 24 -14 31 -44 25z"/>
<path d="M10572 8600 c0 -14 2 -19 5 -12 2 6 2 18 0 25 -3 6 -5 1 -5 -13z"/>
<path d="M10762 8580 c0 -14 2 -19 5 -12 2 6 2 18 0 25 -3 6 -5 1 -5 -13z"/>
<path d="M5262 8560 c0 -14 2 -19 5 -12 2 6 2 18 0 25 -3 6 -5 1 -5 -13z"/>
<path d="M10581 8524 c0 -11 3 -14 6 -6 3 7 2 16 -1 19 -3 4 -6 -2 -5 -13z"/>
<path d="M10708 8503 c6 -2 18 -2 25 0 6 3 1 5 -13 5 -14 0 -19 -2 -12 -5z"/>
<path d="M10643 8493 c9 -2 25 -2 35 0 9 3 1 5 -18 5 -19 0 -27 -2 -17 -5z"/>
<path d="M5292 8250 c0 -14 2 -19 5 -12 2 6 2 18 0 25 -3 6 -5 1 -5 -13z"/>
<path d="M3460 8213 c0 -6 8 -17 18 -24 16 -13 16 -13 2 6 -8 11 -16 22 -17
24 -2 2 -3 0 -3 -6z"/>
<path d="M3710 7955 c0 -5 5 -17 10 -25 5 -8 10 -10 10 -5 0 6 -5 17 -10 25
-5 8 -10 11 -10 5z"/>
<path d="M3726 7897 c3 -10 9 -15 12 -12 3 3 0 11 -7 18 -10 9 -11 8 -5 -6z"/>
<path d="M3967 7449 c7 -7 15 -10 18 -7 3 3 -2 9 -12 12 -14 6 -15 5 -6 -5z"/>
<path d="M10950 7380 c-34 -7 -34 -7 -5 -8 17 0 44 4 60 8 27 7 27 8 5 8 -14
-1 -41 -4 -60 -8z"/>
<path d="M10853 7363 c9 -2 23 -2 30 0 6 3 -1 5 -18 5 -16 0 -22 -2 -12 -5z"/>
<path d="M10783 7353 c9 -2 23 -2 30 0 6 3 -1 5 -18 5 -16 0 -22 -2 -12 -5z"/>
<path d="M10723 7343 c9 -2 23 -2 30 0 6 3 -1 5 -18 5 -16 0 -22 -2 -12 -5z"/>
<path d="M10648 7333 c6 -2 18 -2 25 0 6 3 1 5 -13 5 -14 0 -19 -2 -12 -5z"/>
<path d="M11023 7313 c9 -2 23 -2 30 0 6 3 -1 5 -18 5 -16 0 -22 -2 -12 -5z"/>
<path d="M10963 7303 c9 -2 23 -2 30 0 6 3 -1 5 -18 5 -16 0 -22 -2 -12 -5z"/>
<path d="M10893 7293 c9 -2 23 -2 30 0 6 3 -1 5 -18 5 -16 0 -22 -2 -12 -5z"/>
<path d="M10770 7280 c-34 -7 -34 -7 -5 -8 17 0 44 4 60 8 27 7 27 8 5 8 -14
-1 -41 -4 -60 -8z"/>
<path d="M10683 7263 c9 -2 25 -2 35 0 9 3 1 5 -18 5 -19 0 -27 -2 -17 -5z"/>
<path d="M4153 7190 c0 -25 2 -35 4 -22 2 12 2 32 0 45 -2 12 -4 2 -4 -23z"/>
<path d="M5343 7153 c9 -2 23 -2 30 0 6 3 -1 5 -18 5 -16 0 -22 -2 -12 -5z"/>
<path d="M5818 7083 c7 -3 16 -2 19 1 4 3 -2 6 -13 5 -11 0 -14 -3 -6 -6z"/>
<path d="M5855 7085 c22 -10 97 -23 89 -15 -5 4 -29 11 -54 14 -25 3 -40 4
-35 1z"/>
<path d="M6170 7016 c0 -2 7 -7 16 -10 8 -3 12 -2 9 4 -6 10 -25 14 -25 6z"/>
<path d="M3297 6706 c-4 -10 -1 -13 8 -9 8 3 12 9 9 14 -7 12 -11 11 -17 -5z"/>
<path d="M6980 6431 c0 -6 4 -13 10 -16 6 -3 7 1 4 9 -7 18 -14 21 -14 7z"/>
<path d="M2870 6420 c-9 -6 -10 -10 -3 -10 6 0 15 5 18 10 8 12 4 12 -15 0z"/>
<path d="M7063 6195 c-3 -9 -3 -18 -1 -21 3 -3 8 4 11 16 6 23 -1 27 -10 5z"/>
<path d="M7077 6115 c3 -27 7 -52 9 -54 7 -8 2 54 -6 79 -6 17 -7 9 -3 -25z"/>
<path d="M4555 6050 c-110 -10 -333 -30 -495 -44 -162 -14 -320 -28 -350 -31
-30 -3 -86 -8 -125 -11 -38 -3 -301 -25 -583 -49 -282 -24 -522 -41 -533 -36
-12 4 -43 3 -71 -3 -50 -10 -50 -10 -45 -46 6 -47 47 -202 57 -215 8 -11 67
-244 124 -495 20 -85 40 -168 46 -185 7 -23 110 -463 110 -472 0 -1 12 -1 27
0 24 2 29 -5 59 -82 18 -46 41 -92 51 -103 31 -35 133 -78 186 -78 42 0 47 2
47 23 0 14 -27 49 -74 97 -96 98 -146 172 -146 216 0 63 40 50 291 -99 125
-74 158 -89 249 -112 184 -47 361 -149 406 -236 8 -16 19 -29 25 -29 18 0 144
127 226 227 115 140 258 339 305 427 105 192 234 353 413 516 62 56 153 125
193 146 1 0 -5 32 -14 70 -9 38 -42 193 -73 344 -55 270 -56 275 -81 276 -14
1 -115 -6 -225 -16z"/>
<path d="M2491 5964 c0 -11 3 -14 6 -6 3 7 2 16 -1 19 -3 4 -6 -2 -5 -13z"/>
<path d="M8150 3993 l0 -1928 75 3 75 4 0 1389 0 1389 500 0 500 0 0 -1390 0
-1390 70 0 71 0 -1 153 c-1 83 -1 626 0 1205 l0 1052 195 0 195 0 0 -112 c1
-62 1 -604 1 -1205 l0 -1091 60 -4 c34 -1 63 -1 65 1 2 2 4 46 4 98 l0 93 200
0 199 0 3 -96 3 -95 259 1 c143 0 261 2 262 3 1 1 -24 155 -57 342 -32 187
-77 444 -99 570 -22 127 -62 361 -90 520 -28 160 -60 342 -71 405 -11 63 -42
243 -69 400 -27 157 -54 307 -59 335 -5 27 -8 51 -7 52 3 4 239 43 242 41 2
-3 4 -12 149 -843 52 -302 127 -730 165 -950 38 -220 87 -501 109 -625 22
-124 38 -227 36 -228 -2 -2 -23 -6 -47 -8 -24 -2 -37 -1 -30 2 15 7 16 36 0
52 -27 27 -75 1 -64 -35 10 -31 55 -39 201 -36 l140 3 3 405 2 405 1240 0
1240 0 0 -242 c-1 -134 -1 -317 -1 -408 l1 -165 337 0 338 0 5 1165 5 1165
585 0 585 0 2 -1155 c1 -635 3 -1159 3 -1165 0 -6 58 -9 157 -8 87 1 280 3
428 3 l270 0 0 137 0 138 278 3 277 2 0 -140 0 -140 80 0 80 0 0 1925 0 1925
-4550 0 -4550 0 0 -1927z m8233 616 c82 -16 117 -27 117 -37 0 -7 -88 -453
-195 -990 -107 -537 -217 -1094 -246 -1237 -28 -143 -52 -261 -54 -263 -5 -5
-269 49 -277 57 -6 5 471 2440 488 2490 2 8 13 11 27 8 12 -3 75 -16 140 -28z
m-6023 -219 l0 -90 -200 0 -200 0 0 90 0 90 200 0 200 0 0 -90z m6730 -202 l0
-153 -280 3 -280 3 0 143 c0 78 3 146 7 149 3 4 129 7 280 7 l273 0 0 -152z
m-6730 7 l0 -35 -200 0 -200 0 0 35 0 35 200 0 200 0 0 -35z m0 -135 l0 -30
-200 0 -200 0 0 30 0 30 200 0 200 0 0 -30z m6730 -221 l0 -129 -277 2 -278 3
-3 114 c-1 63 0 121 2 128 5 11 60 13 281 13 l275 -1 0 -130z m-6730 -559 l0
-680 -200 0 -200 0 0 680 0 680 200 0 200 0 0 -680z m6730 235 l0 -125 -277 2
-278 3 -3 123 -3 122 281 0 280 0 0 -125z m0 -322 l0 -128 -280 3 -280 3 0
118 c0 65 3 121 7 124 3 4 129 7 280 7 l273 0 0 -127z m-2730 -33 l0 -40
-1315 0 -1315 0 0 40 0 40 1315 0 1315 0 0 -40z m2730 -290 l0 -130 -277 2
-278 3 -3 114 c-1 63 0 121 2 128 4 10 63 13 281 13 l275 0 0 -130z m0 -320
l0 -130 -277 2 -278 3 -3 122 -3 123 278 3 c153 1 279 3 281 5 1 1 2 -57 2
-128z m-6730 -57 l0 -38 -200 3 -200 3 0 34 0 35 200 0 200 0 0 -37z m0 -133
l0 -30 -200 0 -200 0 0 30 0 30 200 0 200 0 0 -30z"/>
<path d="M7112 5830 c0 -14 2 -19 5 -12 2 6 2 18 0 25 -3 6 -5 1 -5 -13z"/>
<path d="M7132 5690 c0 -14 2 -19 5 -12 2 6 2 18 0 25 -3 6 -5 1 -5 -13z"/>
<path d="M7133 5620 c0 -25 2 -35 4 -22 2 12 2 32 0 45 -2 12 -4 2 -4 -23z"/>
<path d="M2384 5595 c-3 -8 -4 -20 -2 -27 3 -7 7 -1 10 15 6 29 1 36 -8 12z"/>
<path d="M7143 5485 c0 -27 2 -38 4 -22 2 15 2 37 0 50 -2 12 -4 0 -4 -28z"/>
<path d="M2375 5500 c-3 -5 -1 -10 4 -10 6 0 11 5 11 10 0 6 -2 10 -4 10 -3 0
-8 -4 -11 -10z"/>
<path d="M7152 5340 c0 -19 2 -27 5 -17 2 9 2 25 0 35 -3 9 -5 1 -5 -18z"/>
<path d="M7162 5210 c0 -19 2 -27 5 -17 2 9 2 25 0 35 -3 9 -5 1 -5 -18z"/>
<path d="M4912 5110 c-40 -44 -69 -80 -65 -80 5 0 38 20 73 45 34 24 67 46 72
47 6 2 6 17 1 36 l-8 32 -73 -80z"/>
<path d="M7162 5145 c0 -16 2 -22 5 -12 2 9 2 23 0 30 -3 6 -5 -1 -5 -18z"/>
<path d="M6071 5078 c-5 -13 -12 -37 -15 -55 -7 -30 -6 -32 26 -37 73 -13 193
-24 200 -20 10 7 11 111 1 117 -5 2 -52 8 -106 11 -95 7 -97 7 -106 -16z"/>
<path d="M6410 5061 c-41 -16 -75 -32 -75 -37 0 -22 48 -124 59 -124 20 0 197
72 194 78 -20 43 -73 112 -86 111 -10 0 -51 -13 -92 -28z"/>
<path d="M2371 5034 c0 -11 3 -14 6 -6 3 7 2 16 -1 19 -3 4 -6 -2 -5 -13z"/>
<path d="M7172 5010 c0 -19 2 -27 5 -17 2 9 2 25 0 35 -3 9 -5 1 -5 -18z"/>
<path d="M2373 4945 c0 -33 2 -45 4 -27 2 18 2 45 0 60 -2 15 -4 0 -4 -33z"/>
<path d="M7183 4895 c0 -27 2 -38 4 -22 2 15 2 37 0 50 -2 12 -4 0 -4 -28z"/>
<path d="M2371 4864 c0 -11 3 -14 6 -6 3 7 2 16 -1 19 -3 4 -6 -2 -5 -13z"/>
<path d="M7193 4745 c0 -22 2 -30 4 -17 2 12 2 30 0 40 -3 9 -5 -1 -4 -23z"/>
<path d="M2381 4750 c0 -14 -4 -36 -7 -50 -5 -22 -4 -23 6 -7 6 9 9 32 7 50
-3 25 -4 26 -6 7z"/>
<path d="M10512 4688 c-18 -18 -14 -46 7 -58 38 -20 71 13 51 51 -12 21 -40
25 -58 7z"/>
<path d="M7202 4585 c0 -16 2 -22 5 -12 2 9 2 23 0 30 -3 6 -5 -1 -5 -18z"/>
<path d="M10553 4513 c-18 -7 -16 -48 3 -64 31 -26 70 25 44 56 -13 15 -25 17
-47 8z"/>
<path d="M7213 4435 c0 -38 2 -53 4 -32 2 20 2 52 0 70 -2 17 -4 1 -4 -38z"/>
<path d="M2372 4460 c0 -19 2 -27 5 -17 2 9 2 25 0 35 -3 9 -5 1 -5 -18z"/>
<path d="M2362 4320 c0 -19 2 -27 5 -17 2 9 2 25 0 35 -3 9 -5 1 -5 -18z"/>
<path d="M10588 4329 c-33 -19 -15 -69 24 -69 15 0 38 27 38 44 0 7 -31 36
-38 36 -4 0 -15 -5 -24 -11z"/>
<path d="M7223 4260 c0 -25 2 -35 4 -22 2 12 2 32 0 45 -2 12 -4 2 -4 -23z"/>
<path d="M9508 4263 c17 -2 47 -2 65 0 17 2 3 4 -33 4 -36 0 -50 -2 -32 -4z"/>
<path d="M9773 4263 c9 -2 25 -2 35 0 9 3 1 5 -18 5 -19 0 -27 -2 -17 -5z"/>
<path d="M5127 4239 c-20 -11 -119 -47 -218 -80 -268 -89 -375 -148 -522 -288
l-79 -76 78 -12 c44 -7 133 -18 199 -24 121 -12 184 -5 285 31 14 5 105 28
204 51 l178 42 -5 42 c-10 73 -70 335 -76 335 -3 -1 -23 -10 -44 -21z"/>
<path d="M9458 4173 c6 -2 18 -2 25 0 6 3 1 5 -13 5 -14 0 -19 -2 -12 -5z"/>
<path d="M9523 4173 c15 -2 39 -2 55 0 15 2 2 4 -28 4 -30 0 -43 -2 -27 -4z"/>
<path d="M10614 4136 c-12 -31 0 -51 31 -51 27 0 30 3 30 30 0 25 -4 30 -28
33 -17 2 -29 -2 -33 -12z"/>
<path d="M7224 3975 c0 -77 2 -107 3 -67 2 40 2 103 0 140 -2 37 -3 4 -3 -73z"/>
<path d="M2322 4005 c0 -16 2 -22 5 -12 2 9 2 23 0 30 -3 6 -5 -1 -5 -18z"/>
<path d="M9573 4003 c37 -2 97 -2 135 0 37 2 6 3 -68 3 -74 0 -105 -1 -67 -3z"/>
<path d="M10651 3956 c-19 -22 -4 -56 23 -56 32 0 53 26 39 48 -14 23 -47 27
-62 8z"/>
<path d="M2312 3920 c0 -19 2 -27 5 -17 2 9 2 25 0 35 -3 9 -5 1 -5 -18z"/>
<path d="M2282 3780 c0 -19 2 -27 5 -17 2 9 2 25 0 35 -3 9 -5 1 -5 -18z"/>
<path d="M7213 3755 c0 -33 2 -45 4 -27 2 18 2 45 0 60 -2 15 -4 0 -4 -33z"/>
<path d="M10693 3783 c-18 -7 -16 -48 3 -64 31 -26 70 25 44 56 -13 15 -25 17
-47 8z"/>
<path d="M2272 3700 c0 -19 2 -27 5 -17 2 9 2 25 0 35 -3 9 -5 1 -5 -18z"/>
<path d="M2262 3630 c0 -19 2 -27 5 -17 2 9 2 25 0 35 -3 9 -5 1 -5 -18z"/>
<path d="M10726 3594 c-19 -18 -19 -20 -6 -45 14 -25 46 -24 60 1 8 14 8 26 0
40 -13 24 -33 26 -54 4z"/>
<path d="M2253 3545 c0 -27 2 -38 4 -22 2 15 2 37 0 50 -2 12 -4 0 -4 -28z"/>
<path d="M2229 3442 c-3 -20 -2 -29 4 -23 5 5 7 19 5 32 -3 20 -5 19 -9 -9z"/>
<path d="M7151 3414 c0 -11 3 -14 6 -6 3 7 2 16 -1 19 -3 4 -6 -2 -5 -13z"/>
<path d="M10754 3406 c-12 -31 0 -51 31 -51 27 0 30 3 30 30 0 25 -4 30 -28
33 -17 2 -29 -2 -33 -12z"/>
<path d="M7131 3364 c0 -11 3 -14 6 -6 3 7 2 16 -1 19 -3 4 -6 -2 -5 -13z"/>
<path d="M4087 3268 c32 -54 93 -166 93 -171 0 -3 -15 -14 -32 -25 -119 -73
-162 -102 -153 -103 87 -5 878 22 888 31 9 8 -12 111 -27 126 -6 6 -36 16 -66
23 -30 6 -116 24 -190 40 -74 16 -180 38 -235 50 -55 12 -127 27 -160 35 -33
8 -77 17 -99 21 l-38 6 19 -33z"/>
<path d="M2211 3264 c0 -11 3 -14 6 -6 3 7 2 16 -1 19 -3 4 -6 -2 -5 -13z"/>
<path d="M10785 3220 c-14 -43 44 -67 68 -28 8 12 7 21 -2 32 -19 23 -58 20
-66 -4z"/>
<path d="M2204 3105 c0 -66 1 -92 3 -57 2 34 2 88 0 120 -2 31 -3 3 -3 -63z"/>
<path d="M10824 3046 c-12 -31 0 -51 31 -51 27 0 30 3 30 30 0 25 -4 30 -28
33 -17 2 -29 -2 -33 -12z"/>
<path d="M6637 2939 c3 -24 7 -46 9 -48 9 -10 3 65 -5 78 -6 10 -8 -1 -4 -30z"/>
<path d="M2212 2930 c0 -14 2 -19 5 -12 2 6 2 18 0 25 -3 6 -5 1 -5 -13z"/>
<path d="M2221 2874 c0 -11 3 -14 6 -6 3 7 2 16 -1 19 -3 4 -6 -2 -5 -13z"/>
<path d="M10860 2865 c-23 -28 9 -72 45 -59 36 14 24 74 -15 74 -10 0 -23 -7
-30 -15z"/>
<path d="M5023 2833 l-63 -4 0 -52 c0 -29 -4 -108 -10 -177 -5 -69 -16 -271
-25 -450 -8 -179 -20 -392 -26 -475 -5 -82 -14 -240 -19 -350 -6 -110 -17
-326 -25 -480 -8 -154 -19 -363 -25 -465 -5 -102 -12 -229 -16 -282 l-7 -98
252 0 251 0 0 23 c0 21 -64 463 -95 657 -8 52 -15 160 -15 240 0 80 -5 269
-10 420 -5 151 -14 491 -20 755 -5 264 -13 540 -16 613 l-7 132 -31 -2 c-17
-1 -59 -3 -93 -5z"/>
<path d="M2251 2764 c0 -11 3 -14 6 -6 3 7 2 16 -1 19 -3 4 -6 -2 -5 -13z"/>
<path d="M10903 2693 c-21 -8 -16 -61 6 -68 28 -8 51 5 51 29 0 36 -25 53 -57
39z"/>
<path d="M6692 2590 c0 -14 2 -19 5 -12 2 6 2 18 0 25 -3 6 -5 1 -5 -13z"/>
<path d="M6691 2544 c0 -11 3 -14 6 -6 3 7 2 16 -1 19 -3 4 -6 -2 -5 -13z"/>
<path d="M10935 2504 c-19 -20 -16 -43 8 -58 20 -13 50 2 55 26 3 16 -23 48
-38 48 -5 0 -16 -7 -25 -16z"/>
<path d="M9463 2463 c9 -2 23 -2 30 0 6 3 -1 5 -18 5 -16 0 -22 -2 -12 -5z"/>
<path d="M9523 2463 c9 -2 23 -2 30 0 6 3 -1 5 -18 5 -16 0 -22 -2 -12 -5z"/>
<path d="M9678 2463 c23 -2 61 -2 85 0 23 2 4 4 -43 4 -47 0 -66 -2 -42 -4z"/>
<path d="M6712 2435 c0 -16 2 -22 5 -12 2 9 2 23 0 30 -3 6 -5 -1 -5 -18z"/>
<path d="M9543 2393 c54 -2 139 -2 190 0 51 1 7 3 -98 3 -104 0 -146 -2 -92
-3z"/>
<path d="M2505 2340 c3 -5 8 -10 11 -10 2 0 4 5 4 10 0 6 -5 10 -11 10 -5 0
-7 -4 -4 -10z"/>
<path d="M10975 2326 c-25 -18 -16 -60 14 -64 31 -5 54 23 41 48 -13 24 -35
31 -55 16z"/>
<path d="M2618 2283 c7 -3 16 -2 19 1 4 3 -2 6 -13 5 -11 0 -14 -3 -6 -6z"/>
<path d="M2922 2260 c0 -14 2 -19 5 -12 2 6 2 18 0 25 -3 6 -5 1 -5 -13z"/>
<path d="M6742 2180 c0 -14 2 -19 5 -12 2 6 2 18 0 25 -3 6 -5 1 -5 -13z"/>
<path d="M2911 2174 c0 -11 3 -14 6 -6 3 7 2 16 -1 19 -3 4 -6 -2 -5 -13z"/>
<path d="M2891 2074 c0 -11 3 -14 6 -6 3 7 2 16 -1 19 -3 4 -6 -2 -5 -13z"/>
<path d="M9518 2053 c7 -3 16 -2 19 1 4 3 -2 6 -13 5 -11 0 -14 -3 -6 -6z"/>
<path d="M9768 2053 c7 -3 16 -2 19 1 4 3 -2 6 -13 5 -11 0 -14 -3 -6 -6z"/>
<path d="M2882 1990 c0 -19 2 -27 5 -17 2 9 2 25 0 35 -3 9 -5 1 -5 -18z"/>
<path d="M6772 1955 c0 -16 2 -22 5 -12 2 9 2 23 0 30 -3 6 -5 -1 -5 -18z"/>
<path d="M2866 1901 c-4 -7 -5 -15 -2 -18 9 -9 19 4 14 18 -4 11 -6 11 -12 0z"/>
<path d="M6782 1880 c0 -14 2 -19 5 -12 2 6 2 18 0 25 -3 6 -5 1 -5 -13z"/>
<path d="M6791 1814 c0 -11 3 -14 6 -6 3 7 2 16 -1 19 -3 4 -6 -2 -5 -13z"/>
<path d="M2851 1774 c0 -11 3 -14 6 -6 3 7 2 16 -1 19 -3 4 -6 -2 -5 -13z"/>
<path d="M6802 1715 c0 -16 2 -22 5 -12 2 9 2 23 0 30 -3 6 -5 -1 -5 -18z"/>
<path d="M2842 1695 c0 -16 2 -22 5 -12 2 9 2 23 0 30 -3 6 -5 -1 -5 -18z"/>
<path d="M6812 1640 c0 -14 2 -19 5 -12 2 6 2 18 0 25 -3 6 -5 1 -5 -13z"/>
<path d="M2833 1605 c0 -22 2 -30 4 -17 2 12 2 30 0 40 -3 9 -5 -1 -4 -23z"/>
<path d="M6821 1564 c0 -11 3 -14 6 -6 3 7 2 16 -1 19 -3 4 -6 -2 -5 -13z"/>
<path d="M6832 1510 c0 -14 2 -19 5 -12 2 6 2 18 0 25 -3 6 -5 1 -5 -13z"/>
<path d="M2793 1345 c0 -22 2 -30 4 -17 2 12 2 30 0 40 -3 9 -5 -1 -4 -23z"/>
<path d="M6851 1334 c0 -11 3 -14 6 -6 3 7 2 16 -1 19 -3 4 -6 -2 -5 -13z"/>
<path d="M6863 1260 c0 -25 2 -35 4 -22 2 12 2 32 0 45 -2 12 -4 2 -4 -23z"/>
<path d="M2781 1244 c0 -11 3 -14 6 -6 3 7 2 16 -1 19 -3 4 -6 -2 -5 -13z"/>
<path d="M6882 1105 c0 -16 2 -22 5 -12 2 9 2 23 0 30 -3 6 -5 -1 -5 -18z"/>
<path d="M2749 1056 c-2 -24 -1 -42 2 -40 9 5 16 84 8 84 -4 0 -9 -20 -10 -44z"/>
<path d="M2742 965 c0 -16 2 -22 5 -12 2 9 2 23 0 30 -3 6 -5 -1 -5 -18z"/>
<path d="M17863 900 c0 -25 2 -35 4 -22 2 12 2 32 0 45 -2 12 -4 2 -4 -23z"/>
<path d="M6912 850 c0 -14 2 -19 5 -12 2 6 2 18 0 25 -3 6 -5 1 -5 -13z"/>
<path d="M2703 695 c0 -27 2 -38 4 -22 2 15 2 37 0 50 -2 12 -4 0 -4 -28z"/>
<path d="M6943 645 c0 -27 2 -38 4 -22 2 15 2 37 0 50 -2 12 -4 0 -4 -28z"/>
<path d="M17180 588 c0 -51 3 -204 7 -340 l6 -248 74 0 73 0 0 168 c0 92 -3
245 -7 340 l-6 172 -74 0 -73 0 0 -92z"/>
<path d="M15625 655 c-5 -2 -36 -6 -67 -10 l-58 -6 0 -97 0 -97 -200 -4 -199
-3 -3 97 -3 96 -260 -1 c-143 0 -263 -4 -266 -8 -4 -4 20 -145 53 -315 l61
-307 213 0 214 0 0 50 0 50 184 0 c101 0 191 3 200 6 13 5 16 -3 16 -50 l0
-56 67 0 66 0 -6 120 -7 120 118 2 117 2 -111 3 -112 4 -5 27 c-3 15 -5 107
-4 204 1 98 2 178 2 177 0 0 -4 -2 -10 -4z m-117 -306 l3 -26 -137 -6 c-75 -4
-168 -7 -206 -7 l-68 0 0 30 0 29 138 4 c75 2 166 3 202 3 62 -1 65 -2 68 -27z
m2 -138 l0 -39 -205 -1 -205 -2 0 35 0 35 98 4 c53 1 145 4 205 5 l107 2 0
-39z"/>
<path d="M16043 653 c-12 -2 -20 -10 -18 -16 4 -11 13 -372 14 -564 l1 -73 70
0 70 0 -6 318 c-3 174 -7 323 -10 330 -3 12 -71 15 -121 5z"/>
<path d="M2691 604 c0 -11 3 -14 6 -6 3 7 2 16 -1 19 -3 4 -6 -2 -5 -13z"/>
<path d="M14113 438 c4 -99 7 -239 7 -310 l0 -128 153 0 154 0 -58 297 c-32
163 -57 298 -56 299 1 1 21 5 45 9 l42 7 -12 -27 c-10 -22 -9 -28 3 -36 47
-30 93 18 49 53 -19 16 -42 18 -178 18 l-155 0 6 -182z"/>
<path d="M11345 560 c-137 -4 -291 -8 -340 -9 l-91 -1 3 -242 c2 -134 6 -258
9 -275 l5 -33 344 0 345 0 0 73 c0 150 -13 497 -19 495 -3 -1 -118 -5 -256 -8z"/>
<path d="M9350 520 c-162 -4 -338 -8 -390 -9 l-95 -1 3 -144 4 -143 -279 -5
c-153 -3 -279 -5 -281 -3 -1 1 -5 66 -9 144 l-6 142 -74 -3 -75 -3 2 -218 c0
-120 3 -231 7 -248 5 -29 6 -29 79 -29 l74 0 0 68 0 69 197 6 c108 4 234 7
280 7 l83 0 0 -44 c0 -24 3 -58 6 -75 l7 -31 213 0 c118 0 214 2 214 5 0 16
82 463 88 481 l7 20 140 -24 c77 -14 141 -26 142 -27 1 0 -16 -100 -37 -220
-22 -121 -40 -223 -40 -227 0 -5 29 -8 65 -8 l65 0 0 183 c0 100 -3 219 -7
265 l-6 82 -41 -2 c-23 -1 -174 -5 -336 -8z"/>
<path d="M14432 418 c-32 -32 8 -80 48 -58 34 18 19 70 -20 70 -9 0 -21 -5
-28 -12z"/>
<path d="M15848 413 c7 -3 16 -2 19 1 4 3 -2 6 -13 5 -11 0 -14 -3 -6 -6z"/>
<path d="M15928 413 c7 -3 16 -2 19 1 4 3 -2 6 -13 5 -11 0 -14 -3 -6 -6z"/>
<path d="M6981 364 c0 -11 3 -14 6 -6 3 7 2 16 -1 19 -3 4 -6 -2 -5 -13z"/>
<path d="M6992 305 c0 -16 3 -52 8 -80 6 -41 7 -44 8 -15 0 19 -3 55 -7 80 -6
33 -9 37 -9 15z"/>
<path d="M15658 313 c7 -3 16 -2 19 1 4 3 -2 6 -13 5 -11 0 -14 -3 -6 -6z"/>
<path d="M15713 313 c15 -2 39 -2 55 0 15 2 2 4 -28 4 -30 0 -43 -2 -27 -4z"/>
<path d="M2641 274 c0 -11 3 -14 6 -6 3 7 2 16 -1 19 -3 4 -6 -2 -5 -13z"/>
<path d="M14472 238 c-25 -25 -6 -68 30 -68 9 0 22 9 28 19 13 25 13 27 -6 45
-19 19 -36 20 -52 4z"/>
<path d="M2632 175 c0 -16 2 -22 5 -12 2 9 2 23 0 30 -3 6 -5 -1 -5 -18z"/>
<path d="M15878 153 c23 -2 61 -2 85 0 23 2 4 4 -43 4 -47 0 -66 -2 -42 -4z"/>
<path d="M7011 134 c0 -11 3 -14 6 -6 3 7 2 16 -1 19 -3 4 -6 -2 -5 -13z"/>
<path d="M2622 120 c0 -14 2 -19 5 -12 2 6 2 18 0 25 -3 6 -5 1 -5 -13z"/>
<path d="M2612 40 c0 -14 2 -19 5 -12 2 6 2 18 0 25 -3 6 -5 1 -5 -13z"/>
<path d="M14506 45 c-13 -35 -7 -45 30 -45 33 0 35 2 32 27 -2 22 -9 29 -29
31 -17 2 -29 -3 -33 -13z"/>
<path d="M7021 34 c0 -11 3 -14 6 -6 3 7 2 16 -1 19 -3 4 -6 -2 -5 -13z"/>
</g>
</svg>
